<svg version="1.1" xmlns="http://www.w3.org/2000/svg" width="1011" height="1024" viewBox="0 0 1011 1024">
<path fill="white" d="M658.434 833.264c53.919-88.186 56.187-179.395 6.929-270.352-9.7-17.889-11.464-29.857 2.268-46.486 33.889-40.817 65.131-83.776 98.138-125.223 25.196-30.865 45.227-32.754 75.588-8.693 53.919 42.077 111.24 36.534 159.112-13.605 16.755-17.637 16.251-31.369-0.63-47.621-26.456-26.833-52.659-53.793-78.737-80.123l-147.144-147.144c-26.33-26.078-53.29-52.281-79.619-79.619-15.999-16.503-29.857-17.133-47.368 0-50.392 47.873-55.683 105.319-13.605 159.112 24.062 30.739 22.172 51.399-8.693 75.588-41.447 33.132-84.406 64.375-125.223 98.138-16.629 13.858-28.597 12.598-46.486 2.268-90.957-49.384-181.914-46.991-270.352 6.929-34.77 21.165-36.156 36.786-8.063 65.006l224.37 224.873 194.638 194.386c28.094 28.219 43.715 26.708 64.879-7.433z"></path>
<path fill="white" d="M283.016 631.698l100.154 100.784-370.757 287.358c-0.732 0.657-1.705 1.058-2.771 1.058s-2.040-0.402-2.775-1.062l0.004 0.003-4.157-4.662c-0.592-0.713-0.951-1.637-0.951-2.646s0.359-1.932 0.956-2.653l-0.006 0.007c21.038-29.983 194.008-265.942 280.304-378.19z"></path>
</svg>
